<?xml version="1.0" encoding="UTF-8" standalone="no"?>
<!-- Created with Inkscape (http://www.inkscape.org/) -->

<svg xmlns:dc="http://purl.org/dc/elements/1.1/" xmlns:cc="http://creativecommons.org/ns#" xmlns:rdf="http://www.w3.org/1999/02/22-rdf-syntax-ns#" xmlns:svg="http://www.w3.org/2000/svg" xmlns="http://www.w3.org/2000/svg" version="1.0" width="512.09998" height="512.09998" viewBox="-0.512 -0.12 512.1 512.09998" id="svg6273" xml:space="preserve"><metadata id="metadata9"><rdf:RDF><cc:Work rdf:about=""><dc:format>image/svg+xml</dc:format><dc:type rdf:resource="http://purl.org/dc/dcmitype/StillImage" /><dc:title></dc:title></cc:Work></rdf:RDF></metadata>
	<defs id="defs6275"><marker refX="0" refY="0" orient="auto" id="Arrow1Send" style="overflow:visible"><path d="M 0,0 5,-5 -12.5,0 5,5 0,0 z" transform="matrix(-0.2,0,0,-0.2,-1.2,0)" id="path4011" style="fill-rule:evenodd;stroke:#000000;stroke-width:1pt;marker-start:none" /></marker><marker refX="0" refY="0" orient="auto" id="Arrow1Mend" style="overflow:visible"><path d="M 0,0 5,-5 -12.5,0 5,5 0,0 z" transform="matrix(-0.4,0,0,-0.4,-4,0)" id="path4005" style="fill-rule:evenodd;stroke:#000000;stroke-width:1pt;marker-start:none" /></marker><marker refX="0" refY="0" orient="auto" id="Arrow2Send" style="overflow:visible"><path d="M 8.7185878,4.0337352 -2.2072895,0.01601326 8.7185884,-4.0017078 c -1.7454984,2.3720609 -1.7354408,5.6174519 -6e-7,8.035443 z" transform="matrix(-0.3,0,0,-0.3,0.69,0)" id="path4029" style="font-size:12px;fill-rule:evenodd;stroke-width:0.625;stroke-linejoin:round" /></marker><marker refX="0" refY="0" orient="auto" id="Arrow2Mend" style="overflow:visible"><path d="M 8.7185878,4.0337352 -2.2072895,0.01601326 8.7185884,-4.0017078 c -1.7454984,2.3720609 -1.7354408,5.6174519 -6e-7,8.035443 z" transform="scale(-0.6,-0.6)" id="path4023" style="font-size:12px;fill-rule:evenodd;stroke-width:0.625;stroke-linejoin:round" /></marker>
	
		
		
		
	</defs>
	
<path d="m 1.2631918,18.613995 c 0,-9.37424 7.5947839,-16.96904 16.9690262,-16.96904 l 474.627062,0 c 9.37423,0 16.96904,7.5948 16.96904,16.96904 l 0,474.627135 c 0,9.37422 -7.59481,16.96902 -16.96904,16.96902 l -474.627062,0 c -9.3742423,0 -16.9690262,-7.5948 -16.9690262,-16.96902 l 0,-474.627135 z" id="path4734" style="fill:#ffffff;fill-opacity:1;fill-rule:nonzero;stroke:#000000;stroke-width:3.43483233;stroke-linecap:butt;stroke-linejoin:miter;stroke-miterlimit:4;stroke-opacity:1;stroke-dasharray:none" /><path d="m 9.1298996,22.244435 c 0,-7.03188 5.7008774,-12.72797 12.7327284,-12.72797 l 467.995952,0 c 7.0271,0 12.72796,5.69609 12.72796,12.72797 l 0,467.995975 c 0,7.03187 -5.70086,12.72796 -12.72796,12.72796 l -467.995952,0 c -7.031851,0 -12.7327284,-5.69609 -12.7327284,-12.72796 l 0,-467.995975" id="path4736" style="fill:#000000;fill-opacity:1;fill-rule:nonzero;stroke:none" /><path d="m 21.600267,28.346025 c 0,-3.51117 2.85281,-6.36398 6.363967,-6.36398 l 454.743216,0 c 3.51593,0 6.36397,2.85281 6.36397,6.36398 l 0,454.743255 c 0,3.51594 -2.84804,6.36398 -6.36397,6.36398 l -454.743216,0 c -3.511157,0 -6.363967,-2.84804 -6.363967,-6.36398 l 0,-454.743255" id="path4738" style="fill:#ffffff;fill-opacity:1;fill-rule:nonzero;stroke:none" /><path d="m 259.05215,443.19752 c 103.81785,0 187.97598,-84.15817 187.97598,-187.97599 0,-103.81304 -84.15813,-187.97603 -187.97598,-187.97603 -103.81306,0 -187.975987,84.16299 -187.975987,187.97603 0,103.81782 84.162927,187.97599 187.975987,187.97599" id="path4740" style="fill:#008253;fill-opacity:1;fill-rule:nonzero;stroke:none" /><path d="m 259.41472,402.62835 c 81.20993,0 147.04899,-65.83432 147.04899,-147.04426 0,-81.20993 -65.83906,-147.04905 -147.04899,-147.04905 -81.20993,0 -147.04901,65.83912 -147.04901,147.04905 0,81.20994 65.83908,147.04426 147.04901,147.04426" id="path4742" style="fill:#ffffff;fill-opacity:1;fill-rule:nonzero;stroke:none" /><path d="m 206.12711,282.40442 c -10.00395,0.3721 -19.66442,2.65722 -28.18471,7.40873 -5.67703,-0.42934 -11.29679,-1.913 -16.6017,-3.88804 -5.06639,-3.08656 -13.27658,-5.37169 -13.46264,-12.84245 -1.17357,-2.71447 -2.65246,-6.23516 -6.04911,-6.66452 -1.29763,0.0622 -2.28514,0.86348 -3.27265,1.60291 -0.73945,1.04953 -0.80146,2.34714 -0.73945,3.70676 1.789,5.3717 6.23518,10.73862 11.42083,14.07328 11.91219,7.22269 25.56087,10.30925 40.00627,11.42081 l 61.24019,0.12408 c 3.98346,0 3.36328,-2.03705 3.36328,-2.03705 0.0623,-2.90053 -4.71811,-1.78897 -6.26379,-2.2231 -9.69386,-4.26015 -19.81707,-7.59003 -30.49846,-9.5078 -2.65244,0.80622 -1.60292,-2.28035 -1.66971,-3.58272 l 156.56639,0.19082 4.07408,-1.35962 c 2.09908,-0.80147 3.63997,-5.30969 4.44621,-7.03665 -0.49614,-5.99187 1.78897,-11.54962 -2.96254,-15.74774 l 1.91302,-6.11114 c 1.85097,-5.80105 3.26785,-13.02374 2.22309,-19.25892 -0.86826,-2.47117 -3.21062,-4.19813 -5.7438,-4.57025 -2.16109,0 -4.13612,0.37212 -5.68179,1.79375 -4.50344,3.08181 -4.19813,8.51553 -5.73903,12.8377 l -1.78899,12.16503 c -0.37209,0.73944 -1.54567,1.97502 -2.40915,2.21833 l -108.28313,-0.12408 c -1.04952,-5.61499 -1.17356,-12.46557 -0.43411,-18.39543 l 0.12407,0 c 1.66495,-18.70553 11.79294,-33.39898 22.41229,-48.15444 l 0,-2.2231 c -0.49615,-1.47889 -2.28511,-2.03705 -3.70674,-1.78898 -4.81355,3.1486 -8.58233,8.5203 -12.28431,12.59439 -3.52071,3.45868 -5.1284,9.14047 -10.24724,10.86743 -7.10344,3.21061 -14.63621,5.36692 -21.79689,8.39148 -7.77606,3.45868 -17.65598,0.86825 -26.04746,2.2231 -3.27742,1.6697 -2.28513,5.86783 -3.15339,8.89241 -8.33422,3.70198 -17.0358,7.9001 -23.39503,15.30885 -2.22309,3.64474 -5.68179,6.48324 -5.00436,11.23953 3.95483,8.39625 12.04101,16.48244 20.43726,20.43249 5.24766,3.08656 11.79293,3.52069 17.16462,5.06161 l 0.0267,2.96254" id="path4744" style="fill:#000000;fill-opacity:1;fill-rule:nonzero;stroke:none" /><path d="m 253.35605,282.56184 111.46512,-0.0342 c 2.03706,0.68218 4.01208,2.03704 4.9996,4.01683 1.29759,2.40439 0.86348,5.86307 -0.73945,8.02416 -2.83852,4.57023 -9.44579,2.28511 -13.768,3.08658 l -83.28514,-0.12408 c -8.02415,-0.9255 -15.92425,-3.33465 -21.91136,-9.38378 -0.98751,-0.80145 -0.98751,-2.2231 -0.74421,-3.39666 0.18585,-0.73945 0.52475,-2.22309 3.98344,-2.1897" id="path4746" style="fill:#000000;fill-opacity:1;fill-rule:nonzero;stroke:none" /></svg>