<?xml version="1.0" encoding="UTF-8" standalone="no"?>
<!-- Created with Inkscape (http://www.inkscape.org/) -->

<svg xmlns:dc="http://purl.org/dc/elements/1.1/" xmlns:cc="http://creativecommons.org/ns#" xmlns:rdf="http://www.w3.org/1999/02/22-rdf-syntax-ns#" xmlns:svg="http://www.w3.org/2000/svg" xmlns="http://www.w3.org/2000/svg" version="1.0" width="512" height="512" viewBox="-0.512 -0.12 512.00001 512.00001" id="svg6273" xml:space="preserve"><metadata id="metadata9"><rdf:RDF><cc:Work rdf:about=""><dc:format>image/svg+xml</dc:format><dc:type rdf:resource="http://purl.org/dc/dcmitype/StillImage" /><dc:title></dc:title></cc:Work></rdf:RDF></metadata>
	<defs id="defs6275"><marker refX="0" refY="0" orient="auto" id="Arrow1Send" style="overflow:visible"><path d="M 0,0 5,-5 -12.5,0 5,5 0,0 z" transform="matrix(-0.2,0,0,-0.2,-1.2,0)" id="path4011" style="fill-rule:evenodd;stroke:#000000;stroke-width:1pt;marker-start:none" /></marker><marker refX="0" refY="0" orient="auto" id="Arrow1Mend" style="overflow:visible"><path d="M 0,0 5,-5 -12.5,0 5,5 0,0 z" transform="matrix(-0.4,0,0,-0.4,-4,0)" id="path4005" style="fill-rule:evenodd;stroke:#000000;stroke-width:1pt;marker-start:none" /></marker><marker refX="0" refY="0" orient="auto" id="Arrow2Send" style="overflow:visible"><path d="M 8.7185878,4.0337352 -2.2072895,0.01601326 8.7185884,-4.0017078 c -1.7454984,2.3720609 -1.7354408,5.6174519 -6e-7,8.035443 z" transform="matrix(-0.3,0,0,-0.3,0.69,0)" id="path4029" style="font-size:12px;fill-rule:evenodd;stroke-width:0.625;stroke-linejoin:round" /></marker><marker refX="0" refY="0" orient="auto" id="Arrow2Mend" style="overflow:visible"><path d="M 8.7185878,4.0337352 -2.2072895,0.01601326 8.7185884,-4.0017078 c -1.7454984,2.3720609 -1.7354408,5.6174519 -6e-7,8.035443 z" transform="scale(-0.6,-0.6)" id="path4023" style="font-size:12px;fill-rule:evenodd;stroke-width:0.625;stroke-linejoin:round" /></marker>
	
		
		
		
	</defs>
	
<path d="m 476.04353,510.35006 c 18.73693,0 33.93023,-15.19329 33.93023,-33.93024 l 0,-441.098391 c 0,-18.742367 -15.1933,-33.93023 -33.93023,-33.93023 l -441.103823,0 c -18.736952,0 -33.93023,15.187863 -33.93023,33.93023 l 0,441.098391 c 0,18.73695 15.193278,33.93024 33.93023,33.93024 l 441.103823,0 z" id="path3063" style="fill:#ffffff;fill-opacity:1;fill-rule:nonzero;stroke:#000000;stroke-width:3.03573418;stroke-linecap:butt;stroke-linejoin:miter;stroke-miterlimit:4;stroke-opacity:1;stroke-dasharray:none" /><path d="m 476.04353,9.871049 -441.103823,0 c -14.049997,0 -25.4449646,11.394956 -25.4449646,25.444964 l 0,441.103807 c 0,14.05543 11.3949676,25.44497 25.4449646,25.44497 l 441.103823,0 c 14.05541,0 25.44495,-11.38954 25.44495,-25.44497 l 0,-441.103807 c 0,-14.050008 -11.38954,-25.444964 -25.44495,-25.444964 z m 12.72248,466.548771 c 0,7.0223 -5.70019,12.72248 -12.7279,12.72248 l -441.092987,0 c -7.027713,0 -12.727898,-5.70018 -12.727898,-12.72248 l 0,-441.098391 c 0,-7.027712 5.700185,-12.72791 12.727898,-12.72791 l 441.092987,0 c 7.02771,0 12.7279,5.700198 12.7279,12.72791 l 0,441.098391" id="path3065" style="fill:#000000;fill-opacity:1;fill-rule:nonzero;stroke:none" /><path d="m 255.26406,43.519514 c -117.11946,0 -212.066671,94.947206 -212.066671,212.066646 0,117.11948 94.947211,212.06664 212.066671,212.06664 117.11942,0 212.06663,-94.94716 212.06663,-212.06664 0,-117.11944 -94.94721,-212.066646 -212.06663,-212.066646 z m 0,381.717846 c -93.69557,0 -169.651164,-75.95561 -169.651164,-169.6512 0,-40.73579 14.369684,-78.11215 38.302904,-107.35543 l 238.70367,238.70371 c -29.24329,23.93322 -66.61964,38.30292 -107.35541,38.30292 z M 386.61228,362.94163 147.90862,124.23791 c 29.24328,-23.9332 66.61964,-38.302901 107.35544,-38.302901 93.69554,0 169.65655,75.955601 169.65655,169.651151 0,40.73579 -14.3751,78.11213 -38.30833,107.35547" id="path3067" style="fill:#c0111e;fill-opacity:1;fill-rule:nonzero;stroke:none" /><path d="m 292.79755,177.45235 c 0,0 5.46718,2.73089 11.21073,-2.46539 5.73811,-5.19086 0,-12.29985 0,-12.29985 l -49.75205,-57.6738 -47.29211,55.21384 c 0,0 -6.28538,7.10898 -1.91271,13.6707 4.37267,6.56173 11.21074,4.37268 11.21074,4.37268 l 15.57801,-5.4672 0,29.02113 45.30894,45.30893 0,-74.87733 15.64845,5.19629" id="path3069" style="fill:#000000;fill-opacity:1;fill-rule:nonzero;stroke:none" /><path d="m 277.1491,400.17709 0,-92.36264 -45.30894,-45.31438 0,137.67702 45.30894,0" id="path3071" style="fill:#000000;fill-opacity:1;fill-rule:nonzero;stroke:none" /></svg>