<?xml version="1.0" encoding="UTF-8" standalone="no"?>
<!-- Created with Inkscape (http://www.inkscape.org/) -->

<svg xmlns:dc="http://purl.org/dc/elements/1.1/" xmlns:cc="http://creativecommons.org/ns#" xmlns:rdf="http://www.w3.org/1999/02/22-rdf-syntax-ns#" xmlns:svg="http://www.w3.org/2000/svg" xmlns="http://www.w3.org/2000/svg" version="1.0" width="512.09998" height="512.09998" viewBox="-0.512 -0.12 512.1 512.09998" id="svg6273" xml:space="preserve"><metadata id="metadata9"><rdf:RDF><cc:Work rdf:about=""><dc:format>image/svg+xml</dc:format><dc:type rdf:resource="http://purl.org/dc/dcmitype/StillImage" /><dc:title></dc:title></cc:Work></rdf:RDF></metadata>
	<defs id="defs6275"><marker refX="0" refY="0" orient="auto" id="Arrow1Send" style="overflow:visible"><path d="M 0,0 5,-5 -12.5,0 5,5 0,0 z" transform="matrix(-0.2,0,0,-0.2,-1.2,0)" id="path4011" style="fill-rule:evenodd;stroke:#000000;stroke-width:1pt;marker-start:none" /></marker><marker refX="0" refY="0" orient="auto" id="Arrow1Mend" style="overflow:visible"><path d="M 0,0 5,-5 -12.5,0 5,5 0,0 z" transform="matrix(-0.4,0,0,-0.4,-4,0)" id="path4005" style="fill-rule:evenodd;stroke:#000000;stroke-width:1pt;marker-start:none" /></marker><marker refX="0" refY="0" orient="auto" id="Arrow2Send" style="overflow:visible"><path d="M 8.7185878,4.0337352 -2.2072895,0.01601326 8.7185884,-4.0017078 c -1.7454984,2.3720609 -1.7354408,5.6174519 -6e-7,8.035443 z" transform="matrix(-0.3,0,0,-0.3,0.69,0)" id="path4029" style="font-size:12px;fill-rule:evenodd;stroke-width:0.625;stroke-linejoin:round" /></marker><marker refX="0" refY="0" orient="auto" id="Arrow2Mend" style="overflow:visible"><path d="M 8.7185878,4.0337352 -2.2072895,0.01601326 8.7185884,-4.0017078 c -1.7454984,2.3720609 -1.7354408,5.6174519 -6e-7,8.035443 z" transform="scale(-0.6,-0.6)" id="path4023" style="font-size:12px;fill-rule:evenodd;stroke-width:0.625;stroke-linejoin:round" /></marker>
	
		
		
		
	</defs>
	
<path d="m 1.3167154,18.677835 c 0,-9.3717 7.5927586,-16.96446 16.9644616,-16.96446 l 474.488343,0 c 9.3716,0 16.96449,7.59276 16.96449,16.96446 l 0,474.488395 c 0,9.37169 -7.59289,16.96942 -16.96449,16.96942 l -474.488343,0 c -9.371703,0 -16.9644616,-7.59773 -16.9644616,-16.96942 l 0,-474.488395 z" id="path4380" style="fill:#ffffff;fill-opacity:1;fill-rule:nonzero;stroke:#000000;stroke-width:3.57774353;stroke-linecap:butt;stroke-linejoin:miter;stroke-miterlimit:4;stroke-opacity:1;stroke-dasharray:none" /><path d="m 9.182779,22.305275 c 0,-7.02629 5.699546,-12.72584 12.725844,-12.72584 l 467.864497,0 c 7.02627,0 12.72094,5.69955 12.72094,12.72584 l 0,467.864585 c 0,7.02628 -5.69467,12.72583 -12.72094,12.72583 l -467.864497,0 c -7.026298,0 -12.725844,-5.69955 -12.725844,-12.72583 l 0,-467.864585" id="path4382" style="fill:#000000;fill-opacity:1;fill-rule:nonzero;stroke:none" /><path d="m 21.650231,28.407315 c 0,-3.50819 2.84729,-6.36044 6.360424,-6.36044 l 454.611965,0 c 3.51307,0 6.36047,2.85225 6.36047,6.36044 l 0,454.612015 c 0,3.51315 -2.8474,6.36046 -6.36047,6.36046 l -454.611965,0 c -3.513134,0 -6.360424,-2.84731 -6.360424,-6.36046 l 0,-454.612015" id="path4384" style="fill:#ffffff;fill-opacity:1;fill-rule:nonzero;stroke:none" /><path d="m 256.12163,476.22163 c 121.73269,0 220.41875,-98.68113 220.41875,-220.41387 0,-121.72781 -98.68606,-220.413905 -220.41875,-220.413905 -121.72776,0 -220.408886,98.686095 -220.408886,220.413905 0,121.73274 98.681126,220.41387 220.408886,220.41387" id="path4386" style="fill:#c0111e;fill-opacity:1;fill-rule:nonzero;stroke:none" /><path d="m 391.40006,364.75998 c 23.95112,-29.71513 38.2919,-67.51003 38.2919,-108.6491 0,-95.67981 -77.57248,-173.257261 -173.26223,-173.257261 -42.31178,0 -78.78989,12.874905 -108.87771,38.073151 l 0.43728,0.43728 243.19221,243.1922 0.21855,0.20353" id="path4388" style="fill:#ffffff;fill-opacity:1;fill-rule:nonzero;stroke:none" /><path d="m 367.62799,388.72095 -243.50026,-243.49529 -0.70063,-0.4025 c -25.958528,30.29654 -40.254602,68.27031 -40.254602,111.28772 0,95.68973 77.572452,173.26218 173.257232,173.26218 42.58505,0 81.58254,-15.36443 111.74985,-40.85087 l -0.55159,0.19876" id="path4390" style="fill:#ffffff;fill-opacity:1;fill-rule:nonzero;stroke:none" /><path d="m 195.44907,220.52225 -4.84486,9.31705 c -5.17778,-1.77893 -10.23633,-3.57774 -15.90109,-4.22373 -22.0876,-1.94291 -42.8385,8.05489 -54.41152,26.58462 -12.7805,20.22917 -11.09599,47.61381 2.98145,66.71001 13.18796,17.31232 33.23822,25.22808 53.79038,22.23668 21.44164,-2.50939 40.54779,-19.94591 46.21254,-40.24962 7.11575,-23.54353 -1.53049,-49.12937 -20.87018,-64.10125 l 1.24228,-3.60258 21.11863,16.77067 c 0.40746,-0.15901 0.45219,-0.59132 0.37248,-0.99381 -9.46612,-8.97915 -19.26019,-18.55457 -28.07535,-27.45421 l -1.61497,-0.99383 z m -27.82691,20.24905 c 1.93127,-0.0359 3.98087,0.1404 5.96292,0.37247 3.80135,0.57146 7.87103,1.6895 11.4289,3.22991 l -15.77686,28.57226 c -2.1218,-0.0159 -5.09332,0.79009 -6.95673,2.733 -3.23488,3.39886 -4.07961,6.73809 -3.10567,11.42891 1.21246,3.55786 4.68088,6.34553 8.32323,6.8325 4.20383,0.32318 7.75176,-1.65471 9.93816,-5.21755 1.69944,-2.50442 0.67084,-5.78402 0.99382,-8.6959 l 16.89492,-28.82073 c 13.02398,10.19161 17.91854,27.92131 13.78922,44.10068 -3.07089,14.88738 -18.32104,28.09025 -33.04446,30.43565 -17.15328,2.75289 -34.25192,-4.71069 -43.23105,-20.00057 -8.57666,-13.51095 -7.53812,-33.80471 1.36649,-46.83367 7.92632,-11.25252 19.89826,-17.89002 33.41711,-18.13717 z" id="path4392" style="fill:#000000;fill-opacity:1;fill-rule:nonzero;stroke:none" /><path d="m 250.47677,163.98893 0,11.24505 -27.24551,0 c -6.06727,2.10193 -2.93674,7.69216 -5.36165,12.47242 l -9.95309,-9.98787 c 1.77894,-5.82377 0.83481,-9.68475 7.14554,-12.76062 l 3.55786,-0.96898 31.85685,0" id="path4394" style="fill:#000000;fill-opacity:1;fill-rule:nonzero;stroke:none" /><path d="m 266.70579,292.05228 c -0.40249,2.99636 0.646,6.05235 2.18641,8.47728 2.42493,3.55786 6.22628,6.46975 10.67851,6.54925 1.45597,1.86342 -2.91183,2.42989 -1.94288,5.0983 1.29697,4.61627 6.07222,1.05344 9.14304,1.54041 0.89465,0.16378 1.94302,-0.88948 1.29711,-1.78391 l -21.36219,-19.88133" id="path4396" style="fill:#000000;fill-opacity:1;fill-rule:nonzero;stroke:none" /><path d="m 291.22825,187.10513 c -1.21239,0.64598 -2.28079,2.06219 -2.36036,3.6026 0.32316,1.37643 0.73535,2.79262 1.86344,3.60259 5.66475,2.02739 11.74685,3.15039 18.13723,3.47836 l 0.62115,0.62113 -1.86345,3.47837 -74.66057,0 10.18664,10.93199 61.36819,0 -17.01902,44.47335 6.95657,7.45363 18.38569,-49.44244 11.92575,19.37944 c -12.46231,9.70961 -20.36821,22.31122 -21.73974,37.76509 5.41629,6.23124 11.16076,11.98047 17.39185,17.88871 l 29.81466,-3.60258 c 1.77872,1.78391 3.70184,3.23984 5.96288,3.72681 3.23984,0.48199 6.22121,-0.62611 8.57169,-2.73299 1.61485,-2.01746 2.4398,-4.45231 2.36022,-7.20519 -0.0787,-3.9057 -2.52924,-7.43871 -6.0871,-8.57166 l -20.37322,-31.67796 c 3.47829,-1.37146 6.87714,-2.74294 10.68346,-3.22991 13.83399,-1.61991 27.72752,2.53921 37.51661,13.54076 11.57295,12.37802 15.82653,32.13014 8.94438,47.8275 -7.03629,15.85636 -24.64168,27.64304 -42.36156,26.83307 l 11.67743,11.55313 c 18.8527,-2.58888 36.55255,-17.72972 43.10694,-35.52899 6.95657,-20.46767 2.89192,-42.74409 -11.42897,-59.00793 -14.40047,-15.61286 -35.56873,-22.34598 -56.52345,-16.27376 -3.23984,0.88946 -6.20632,2.18144 -9.56539,3.47836 l -16.52224,-25.21811 2.98136,-6.45982 c 3.55786,-1.61993 10.92204,1.54041 10.6836,-5.09332 -0.32317,-1.29694 -1.22726,-2.45473 -2.36036,-3.10568 -11.97541,0.65095 -24.13474,-1.67458 -36.27431,-2.48455 z m 40.37374,59.00794 18.26146,28.94493 -34.5351,6.21137 c -0.8895,-13.43144 5.10815,-26.50016 16.27364,-35.1563 z" id="path4398" style="fill:#000000;fill-opacity:1;fill-rule:nonzero;stroke:none" /></svg>